<mxfile modified="2023-03-19T10:30:04.463Z" host="app.diagrams.net" agent="5.0 (Windows NT 10.0; Win64; x64) AppleWebKit/537.36 (KHTML, like Gecko) Chrome/111.0.0.0 Safari/537.36" etag="EoyHNDPbXhFcEb4kNwXi" version="21.0.6" type="github">
  <diagram id="Ht1M8jgEwFfnCIfOTk4-" name="Page-1">
    <mxGraphModel dx="1674" dy="764" grid="1" gridSize="10" guides="1" tooltips="1" connect="1" arrows="1" fold="1" page="1" pageScale="1" pageWidth="1169" pageHeight="827" math="0" shadow="0">
      <root>
        <mxCell id="0" />
        <mxCell id="1" parent="0" />
        <mxCell id="_SyFcgjroJwfl7jgYe9C-3" value="AWS Cloud" style="points=[[0,0],[0.25,0],[0.5,0],[0.75,0],[1,0],[1,0.25],[1,0.5],[1,0.75],[1,1],[0.75,1],[0.5,1],[0.25,1],[0,1],[0,0.75],[0,0.5],[0,0.25]];outlineConnect=0;gradientColor=none;html=1;whiteSpace=wrap;fontSize=12;fontStyle=0;container=1;pointerEvents=0;collapsible=0;recursiveResize=0;shape=mxgraph.aws4.group;grIcon=mxgraph.aws4.group_aws_cloud_alt;strokeColor=#232F3E;fillColor=none;verticalAlign=top;align=left;spacingLeft=30;fontColor=#232F3E;dashed=0;" vertex="1" parent="1">
          <mxGeometry x="40" y="30" width="1100" height="770" as="geometry" />
        </mxCell>
        <mxCell id="_SyFcgjroJwfl7jgYe9C-4" value="Availability Zone&lt;br&gt;us-east-2a" style="fillColor=none;strokeColor=#147EBA;dashed=1;verticalAlign=top;fontStyle=0;fontColor=#147EBA;whiteSpace=wrap;html=1;" vertex="1" parent="_SyFcgjroJwfl7jgYe9C-3">
          <mxGeometry x="800" y="170" width="280" height="570" as="geometry" />
        </mxCell>
        <mxCell id="_SyFcgjroJwfl7jgYe9C-7" value="Availability Zone&lt;br&gt;us-east-2b" style="fillColor=none;strokeColor=#147EBA;dashed=1;verticalAlign=top;fontStyle=0;fontColor=#147EBA;whiteSpace=wrap;html=1;" vertex="1" parent="_SyFcgjroJwfl7jgYe9C-3">
          <mxGeometry x="420" y="170" width="300" height="570" as="geometry" />
        </mxCell>
        <mxCell id="_SyFcgjroJwfl7jgYe9C-8" value="Availability Zone&lt;br&gt;us-east-2d" style="fillColor=none;strokeColor=#147EBA;dashed=1;verticalAlign=top;fontStyle=0;fontColor=#147EBA;whiteSpace=wrap;html=1;" vertex="1" parent="_SyFcgjroJwfl7jgYe9C-3">
          <mxGeometry x="10" y="170" width="310" height="570" as="geometry" />
        </mxCell>
      </root>
    </mxGraphModel>
  </diagram>
</mxfile>
